<svg width="356" height="410" viewBox="0 0 356 410" fill="none" xmlns="http://www.w3.org/2000/svg">
<path d="M128.5 8C128.5 11.5055 125.453 14.5 121.5 14.5C117.547 14.5 114.5 11.5055 114.5 8C114.5 4.49452 117.547 1.5 121.5 1.5C125.453 1.5 128.5 4.49452 128.5 8Z" fill="#232931" stroke="#A7A7A7" stroke-width="3"/>
<path d="M185.5 8C185.5 11.5055 182.453 14.5 178.5 14.5C174.547 14.5 171.5 11.5055 171.5 8C171.5 4.49452 174.547 1.5 178.5 1.5C182.453 1.5 185.5 4.49452 185.5 8Z" fill="#232931" stroke="#A7A7A7" stroke-width="3"/>
<path d="M242.5 8C242.5 11.5055 239.453 14.5 235.5 14.5C231.547 14.5 228.5 11.5055 228.5 8C228.5 4.49452 231.547 1.5 235.5 1.5C239.453 1.5 242.5 4.49452 242.5 8Z" fill="#232931" stroke="#A7A7A7" stroke-width="3"/>
<path d="M128.5 402C128.5 405.505 125.453 408.5 121.5 408.5C117.547 408.5 114.5 405.505 114.5 402C114.5 398.495 117.547 395.5 121.5 395.5C125.453 395.5 128.5 398.495 128.5 402Z" fill="#232931" stroke="#A7A7A7" stroke-width="3"/>
<path d="M185.5 402C185.5 405.505 182.453 408.5 178.5 408.5C174.547 408.5 171.5 405.505 171.5 402C171.5 398.495 174.547 395.5 178.5 395.5C182.453 395.5 185.5 398.495 185.5 402Z" fill="#232931" stroke="#A7A7A7" stroke-width="3"/>
<path d="M242.5 402C242.5 405.505 239.453 408.5 235.5 408.5C231.547 408.5 228.5 405.505 228.5 402C228.5 398.495 231.547 395.5 235.5 395.5C239.453 395.5 242.5 398.495 242.5 402Z" fill="#232931" stroke="#A7A7A7" stroke-width="3"/>
<path d="M242.5 64C242.5 67.5055 239.453 70.5 235.5 70.5C231.547 70.5 228.5 67.5055 228.5 64C228.5 60.4945 231.547 57.5 235.5 57.5C239.453 57.5 242.5 60.4945 242.5 64Z" fill="#232931" stroke="#A7A7A7" stroke-width="3"/>
<path d="M298.5 64C298.5 67.5055 295.453 70.5 291.5 70.5C287.547 70.5 284.5 67.5055 284.5 64C284.5 60.4945 287.547 57.5 291.5 57.5C295.453 57.5 298.5 60.4945 298.5 64Z" fill="#232931" stroke="#A7A7A7" stroke-width="3"/>
<path d="M185.5 64C185.5 67.5055 182.453 70.5 178.5 70.5C174.547 70.5 171.5 67.5055 171.5 64C171.5 60.4945 174.547 57.5 178.5 57.5C182.453 57.5 185.5 60.4945 185.5 64Z" fill="#232931" stroke="#A7A7A7" stroke-width="3"/>
<path d="M128.5 64C128.5 67.5055 125.453 70.5 121.5 70.5C117.547 70.5 114.5 67.5055 114.5 64C114.5 60.4945 117.547 57.5 121.5 57.5C125.453 57.5 128.5 60.4945 128.5 64Z" fill="#232931" stroke="#A7A7A7" stroke-width="3"/>
<path d="M72.5 64C72.5 67.5055 69.453 70.5 65.5 70.5C61.547 70.5 58.5 67.5055 58.5 64C58.5 60.4945 61.547 57.5 65.5 57.5C69.453 57.5 72.5 60.4945 72.5 64Z" fill="#232931" stroke="#A7A7A7" stroke-width="3"/>
<path d="M242.5 346C242.5 349.505 239.453 352.5 235.5 352.5C231.547 352.5 228.5 349.505 228.5 346C228.5 342.495 231.547 339.5 235.5 339.5C239.453 339.5 242.5 342.495 242.5 346Z" fill="#232931" stroke="#A7A7A7" stroke-width="3"/>
<path d="M298.5 346C298.5 349.505 295.453 352.5 291.5 352.5C287.547 352.5 284.5 349.505 284.5 346C284.5 342.495 287.547 339.5 291.5 339.5C295.453 339.5 298.5 342.495 298.5 346Z" fill="#232931" stroke="#A7A7A7" stroke-width="3"/>
<path d="M185.5 346C185.5 349.505 182.453 352.5 178.5 352.5C174.547 352.5 171.5 349.505 171.5 346C171.5 342.495 174.547 339.5 178.5 339.5C182.453 339.5 185.5 342.495 185.5 346Z" fill="#232931" stroke="#A7A7A7" stroke-width="3"/>
<path d="M128.5 346C128.5 349.505 125.453 352.5 121.5 352.5C117.547 352.5 114.5 349.505 114.5 346C114.5 342.495 117.547 339.5 121.5 339.5C125.453 339.5 128.5 342.495 128.5 346Z" fill="#232931" stroke="#A7A7A7" stroke-width="3"/>
<path d="M72.5 346C72.5 349.505 69.453 352.5 65.5 352.5C61.547 352.5 58.5 349.505 58.5 346C58.5 342.495 61.547 339.5 65.5 339.5C69.453 339.5 72.5 342.495 72.5 346Z" fill="#232931" stroke="#A7A7A7" stroke-width="3"/>
<path d="M128.5 120C128.5 123.505 125.453 126.5 121.5 126.5C117.547 126.5 114.5 123.505 114.5 120C114.5 116.495 117.547 113.5 121.5 113.5C125.453 113.5 128.5 116.495 128.5 120Z" fill="#232931" stroke="#A7A7A7" stroke-width="3"/>
<path d="M185.5 120C185.5 123.505 182.453 126.5 178.5 126.5C174.547 126.5 171.5 123.505 171.5 120C171.5 116.495 174.547 113.5 178.5 113.5C182.453 113.5 185.5 116.495 185.5 120Z" fill="#232931" stroke="#A7A7A7" stroke-width="3"/>
<path d="M242.5 120C242.5 123.505 239.453 126.5 235.5 126.5C231.547 126.5 228.5 123.505 228.5 120C228.5 116.495 231.547 113.5 235.5 113.5C239.453 113.5 242.5 116.495 242.5 120Z" fill="#232931" stroke="#A7A7A7" stroke-width="3"/>
<path d="M298.5 120C298.5 123.505 295.453 126.5 291.5 126.5C287.547 126.5 284.5 123.505 284.5 120C284.5 116.495 287.547 113.5 291.5 113.5C295.453 113.5 298.5 116.495 298.5 120Z" fill="#232931" stroke="#A7A7A7" stroke-width="3"/>
<path d="M354.5 120C354.5 123.505 351.453 126.5 347.5 126.5C343.547 126.5 340.5 123.505 340.5 120C340.5 116.495 343.547 113.5 347.5 113.5C351.453 113.5 354.5 116.495 354.5 120Z" fill="#232931" stroke="#A7A7A7" stroke-width="3"/>
<path d="M354.5 177C354.5 180.505 351.453 183.5 347.5 183.5C343.547 183.5 340.5 180.505 340.5 177C340.5 173.495 343.547 170.5 347.5 170.5C351.453 170.5 354.5 173.495 354.5 177Z" fill="#232931" stroke="#A7A7A7" stroke-width="3"/>
<path d="M298.5 177C298.5 180.505 295.453 183.5 291.5 183.5C287.547 183.5 284.5 180.505 284.5 177C284.5 173.495 287.547 170.5 291.5 170.5C295.453 170.5 298.5 173.495 298.5 177Z" fill="#232931" stroke="#A7A7A7" stroke-width="3"/>
<path d="M242.5 177C242.5 180.505 239.453 183.5 235.5 183.5C231.547 183.5 228.5 180.505 228.5 177C228.5 173.495 231.547 170.5 235.5 170.5C239.453 170.5 242.5 173.495 242.5 177Z" fill="#232931" stroke="#A7A7A7" stroke-width="3"/>
<path d="M185.5 177C185.5 180.505 182.453 183.5 178.5 183.5C174.547 183.5 171.5 180.505 171.5 177C171.5 173.495 174.547 170.5 178.5 170.5C182.453 170.5 185.5 173.495 185.5 177Z" fill="#232931" stroke="#A7A7A7" stroke-width="3"/>
<path d="M128.5 177C128.5 180.505 125.453 183.5 121.5 183.5C117.547 183.5 114.5 180.505 114.5 177C114.5 173.495 117.547 170.5 121.5 170.5C125.453 170.5 128.5 173.495 128.5 177Z" fill="#232931" stroke="#A7A7A7" stroke-width="3"/>
<path d="M72.5 177C72.5 180.505 69.453 183.5 65.5 183.5C61.547 183.5 58.5 180.505 58.5 177C58.5 173.495 61.547 170.5 65.5 170.5C69.453 170.5 72.5 173.495 72.5 177Z" fill="#232931" stroke="#A7A7A7" stroke-width="3"/>
<path d="M71.5 120C71.5 123.505 68.453 126.5 64.5 126.5C60.547 126.5 57.5 123.505 57.5 120C57.5 116.495 60.547 113.5 64.5 113.5C68.453 113.5 71.5 116.495 71.5 120Z" fill="#232931" stroke="#A7A7A7" stroke-width="3"/>
<path d="M15.5 120C15.5 123.505 12.453 126.5 8.5 126.5C4.54704 126.5 1.5 123.505 1.5 120C1.5 116.495 4.54704 113.5 8.5 113.5C12.453 113.5 15.5 116.495 15.5 120Z" fill="#232931" stroke="#A7A7A7" stroke-width="3"/>
<path d="M16.5 177C16.5 180.505 13.453 183.5 9.5 183.5C5.54704 183.5 2.5 180.505 2.5 177C2.5 173.495 5.54704 170.5 9.5 170.5C13.453 170.5 16.5 173.495 16.5 177Z" fill="#232931" stroke="#A7A7A7" stroke-width="3"/>
<path d="M16.5 234C16.5 237.505 13.453 240.5 9.5 240.5C5.54704 240.5 2.5 237.505 2.5 234C2.5 230.495 5.54704 227.5 9.5 227.5C13.453 227.5 16.5 230.495 16.5 234Z" fill="#232931" stroke="#A7A7A7" stroke-width="3"/>
<path d="M72.5 234C72.5 237.505 69.453 240.5 65.5 240.5C61.547 240.5 58.5 237.505 58.5 234C58.5 230.495 61.547 227.5 65.5 227.5C69.453 227.5 72.5 230.495 72.5 234Z" fill="#232931" stroke="#A7A7A7" stroke-width="3"/>
<path d="M128.5 234C128.5 237.505 125.453 240.5 121.5 240.5C117.547 240.5 114.5 237.505 114.5 234C114.5 230.495 117.547 227.5 121.5 227.5C125.453 227.5 128.5 230.495 128.5 234Z" fill="#232931" stroke="#A7A7A7" stroke-width="3"/>
<path d="M185.5 234C185.5 237.505 182.453 240.5 178.5 240.5C174.547 240.5 171.5 237.505 171.5 234C171.5 230.495 174.547 227.5 178.5 227.5C182.453 227.5 185.5 230.495 185.5 234Z" fill="#232931" stroke="#A7A7A7" stroke-width="3"/>
<path d="M242.5 234C242.5 237.505 239.453 240.5 235.5 240.5C231.547 240.5 228.5 237.505 228.5 234C228.5 230.495 231.547 227.5 235.5 227.5C239.453 227.5 242.5 230.495 242.5 234Z" fill="#232931" stroke="#A7A7A7" stroke-width="3"/>
<path d="M298.5 234C298.5 237.505 295.453 240.5 291.5 240.5C287.547 240.5 284.5 237.505 284.5 234C284.5 230.495 287.547 227.5 291.5 227.5C295.453 227.5 298.5 230.495 298.5 234Z" fill="#232931" stroke="#A7A7A7" stroke-width="3"/>
<path d="M354.5 234C354.5 237.505 351.453 240.5 347.5 240.5C343.547 240.5 340.5 237.505 340.5 234C340.5 230.495 343.547 227.5 347.5 227.5C351.453 227.5 354.5 230.495 354.5 234Z" fill="#232931" stroke="#A7A7A7" stroke-width="3"/>
<path d="M15.5 290C15.5 293.505 12.453 296.5 8.5 296.5C4.54704 296.5 1.5 293.505 1.5 290C1.5 286.495 4.54704 283.5 8.5 283.5C12.453 283.5 15.5 286.495 15.5 290Z" fill="#232931" stroke="#A7A7A7" stroke-width="3"/>
<path d="M71.5 290C71.5 293.505 68.453 296.5 64.5 296.5C60.547 296.5 57.5 293.505 57.5 290C57.5 286.495 60.547 283.5 64.5 283.5C68.453 283.5 71.5 286.495 71.5 290Z" fill="#232931" stroke="#A7A7A7" stroke-width="3"/>
<path d="M127.5 290C127.5 293.505 124.453 296.5 120.5 296.5C116.547 296.5 113.5 293.505 113.5 290C113.5 286.495 116.547 283.5 120.5 283.5C124.453 283.5 127.5 286.495 127.5 290Z" fill="#232931" stroke="#A7A7A7" stroke-width="3"/>
<path d="M184.5 290C184.5 293.505 181.453 296.5 177.5 296.5C173.547 296.5 170.5 293.505 170.5 290C170.5 286.495 173.547 283.5 177.5 283.5C181.453 283.5 184.5 286.495 184.5 290Z" fill="#232931" stroke="#A7A7A7" stroke-width="3"/>
<path d="M241.5 290C241.5 293.505 238.453 296.5 234.5 296.5C230.547 296.5 227.5 293.505 227.5 290C227.5 286.495 230.547 283.5 234.5 283.5C238.453 283.5 241.5 286.495 241.5 290Z" fill="#232931" stroke="#A7A7A7" stroke-width="3"/>
<path d="M297.5 290C297.5 293.505 294.453 296.5 290.5 296.5C286.547 296.5 283.5 293.505 283.5 290C283.5 286.495 286.547 283.5 290.5 283.5C294.453 283.5 297.5 286.495 297.5 290Z" fill="#232931" stroke="#A7A7A7" stroke-width="3"/>
<path d="M353.5 290C353.5 293.505 350.453 296.5 346.5 296.5C342.547 296.5 339.5 293.505 339.5 290C339.5 286.495 342.547 283.5 346.5 283.5C350.453 283.5 353.5 286.495 353.5 290Z" fill="#232931" stroke="#A7A7A7" stroke-width="3"/>
</svg>
