<svg width="125" height="125" viewBox="0 0 125 125" fill="none" xmlns="http://www.w3.org/2000/svg">
<g clip-path="url(#clip0_712_4)">
<path d="M62.5 0C27.9785 0 0 27.9785 0 62.5C0 97.0215 27.9785 125 62.5 125C97.0215 125 125 97.0215 125 62.5C125 27.9785 97.0215 0 62.5 0ZM76.2939 51.9043L75.5859 61.2549H65.9912V93.7256H53.8818V61.2549H47.4121V51.9043H53.8818V45.6299C53.8818 42.8711 53.9551 38.5986 55.957 35.9375C58.0811 33.1299 60.9863 31.2256 65.9912 31.2256C74.1455 31.2256 77.5635 32.3975 77.5635 32.3975L75.9521 41.9678C75.9521 41.9678 73.2666 41.1865 70.7519 41.1865C68.2373 41.1865 65.9912 42.0898 65.9912 44.6045V51.9043H76.2939Z" fill="white"/>
</g>
<defs>
<clipPath id="clip0_712_4">
<rect width="125" height="125" fill="white"/>
</clipPath>
</defs>
</svg>
