<svg width="125" height="125" viewBox="0 0 125 125" fill="none" xmlns="http://www.w3.org/2000/svg">
<g clip-path="url(#clip0_712_8)">
<path d="M62.5001 73.4863C68.5548 73.4863 73.5108 68.5547 73.5108 62.4756C73.5108 60.083 72.7296 57.8613 71.4356 56.0547C69.4337 53.2959 66.1866 51.4648 62.5245 51.4648C58.8624 51.4648 55.6153 53.2715 53.6134 56.0547C52.3194 57.8613 51.5382 60.083 51.5382 62.4756C51.5138 68.5547 56.4454 73.4863 62.5001 73.4863Z" fill="white"/>
<path d="M86.5234 49.0479V39.8193V38.4521H85.1563L75.9277 38.4766L75.9766 49.0723L86.5234 49.0479Z" fill="white"/>
<path d="M79.5898 62.5C79.5898 71.9238 71.9238 79.5898 62.5 79.5898C53.0762 79.5898 45.4102 71.9238 45.4102 62.5C45.4102 60.2295 45.874 58.0566 46.6797 56.0791H37.3535V81.665C37.3535 84.9609 40.0391 87.6465 43.335 87.6465H81.665C84.9609 87.6465 87.6465 84.9609 87.6465 81.665V56.0791H78.3203C79.1504 58.0566 79.5898 60.2295 79.5898 62.5Z" fill="white"/>
<path d="M62.5 0C27.9785 0 0 27.9785 0 62.5C0 97.0215 27.9785 125 62.5 125C97.0215 125 125 97.0215 125 62.5C125 27.9785 97.0215 0 62.5 0ZM93.75 56.0791V81.665C93.75 88.3301 88.3301 93.75 81.665 93.75H43.335C36.6699 93.75 31.25 88.3301 31.25 81.665V56.0791V43.3105C31.25 36.6455 36.6699 31.2256 43.335 31.2256H81.665C88.3301 31.2256 93.75 36.6455 93.75 43.3105V56.0791Z" fill="white"/>
</g>
<defs>
<clipPath id="clip0_712_8">
<rect width="125" height="125" fill="white"/>
</clipPath>
</defs>
</svg>
