<svg width="125" height="125" viewBox="0 0 125 125" fill="none" xmlns="http://www.w3.org/2000/svg">
<g clip-path="url(#clip0_712_6)">
<path d="M62.5 0C27.9785 0 0 27.9785 0 62.5C0 97.0215 27.9785 125 62.5 125C97.0215 125 125 97.0215 125 62.5C125 27.9785 97.0215 0 62.5 0ZM45.0195 88.6475H32.8369V49.6582H45.0195V88.6475ZM38.5986 44.7754H38.501C34.082 44.7754 31.2256 41.7969 31.2256 38.0127C31.2256 34.1553 34.1797 31.25 38.6719 31.25C43.1641 31.25 45.9229 34.1553 46.0205 38.0127C46.0449 41.7725 43.1885 44.7754 38.5986 44.7754ZM93.75 88.6475H79.9316V68.4814C79.9316 63.208 77.7832 59.5947 73.0225 59.5947C69.3848 59.5947 67.3584 62.0361 66.4307 64.3799C66.0889 65.21 66.1377 66.3818 66.1377 67.5781V88.6475H52.4414C52.4414 88.6475 52.6123 52.9053 52.4414 49.6582H66.1377V55.7861C66.9434 53.1006 71.3135 49.292 78.2959 49.292C86.9629 49.292 93.75 54.9072 93.75 66.9678V88.6475Z" fill="white"/>
</g>
<defs>
<clipPath id="clip0_712_6">
<rect width="125" height="125" fill="white"/>
</clipPath>
</defs>
</svg>
